<svg xmlns="http://www.w3.org/2000/svg" width="44179.52" height="33134.641" fill-rule="evenodd" clip-rule="evenodd" image-rendering="optimizeQuality" shape-rendering="geometricPrecision" text-rendering="geometricPrecision" viewBox="-11883.46 -5985.71 44179.519 33134.64"><path fill="#ede7b0" d="M10964.1-2051c8289.87 395.38 14889.74 7241.2 14889.74 15628.99 0 2237.31-470.57 4364.46-1316.5 6289.25H-4124.74c-845.93-1924.79-1316.5-4051.94-1316.5-6289.25 0-5597.55 2939.8-10507.68 7359.03-13273.14 330.95 2272.53 2287.35 4017.98 4651.66 4017.98 2596.42 0 4701.28-2104.86 4701.28-4701.26 0-589.17-108.72-1152.88-306.63-1672.57z"/><path fill="#f5f0bf" d="M10963.98-2051.38c3128.06 149.24 6015.04 1217.45 8398.08 2939.9-1082.91 524.73-2095.77 1203.92-3004.19 2025.51-1794.67 1623.14-4321.23 2160.73-6621.23 1408.8-486.45-159.02-980.88-262.7-1475.52-313.88 1760.5-679.28 3009.61-2387.37 3009.61-4387.38 0-589.32-108.75-1153.16-306.75-1672.95zm-5328.35 6281.3c-1469.35 407.64-2804.27 1286.83-3767.44 2563.37-781.6 1035.91-1821 1848.94-3014.65 2358.11-1215.41 518.46-2529.98 746.96-3840.6 673.64 984.7-3999.71 3507.52-7393.72 6904.85-9520.14 286.22 1965.14 1787.92 3536.04 3717.84 3925.02z"/><path fill="#d9d186" d="M25838.55 14273.21c-86.85 1982.88-543.36 3869.68-1301.21 5594.03H-4124.74c-780.09-1774.98-1240.96-3722.05-1307.99-5768.89 601.37 28.89 1200.76 171.92 1764.88 432.31 1129.31 521.27 2468.78 199.71 3238.38-777.44 1833.6-2328.08 4967.44-3194.4 7736.46-2138.69 2324.88 886.38 4908.68 799.6 7168.83-240.78 2470.07-1136.99 5383-660.96 7362.62 1203.19 1102.58 1038.27 2526.47 1627.09 4000.11 1696.27z"/><path fill="#fff" d="M17473.13 9134.44c79.69 0 150.8 19.19 212.59 54.73 478.11-1134.93 1350.35-1992.5 2085.14-1992.5 585.56 0 927.8 544.56 935.88 1340.12 191.25-149.8 390.15-236.53 575.17-236.53 298.41 0 496.02 225.52 562.42 577.68 276.22-487.32 676.71-828.68 1022.48-828.68 463.13 0 652.67 612.35 423.34 1367.73-2.47 8.13-5.03 16.21-7.57 24.31 39.69-15.81 79.01-24.31 116.99-24.31 179.66 0 274.77 189.21 249.6 452.12l995.32 130.84h-9402.3l1307.94-159.22c259.25-419.36 614.14-706.29 923-706.29zM9071.29 6793.3l-1310.05-133.06c155.03-359.93 53.02-644.43-239.98-644.43-212.3 0-468.99 149.39-667.92 368.57-83.49-250.76-289.15-405.42-598.67-405.42-317.49 0-683.32 162.74-1016.47 425l-30.13-3.07c114.6-610.03-144.66-1044.87-695.87-1044.87-307.93 0-656.18 135.73-986.64 361.85-40.7-674.84-445.76-1118.12-1148.4-1118.12-601.43 0-1299.37 324.79-1923.37 841.55-65.29-272.73-267.71-444.13-585.19-444.13-595.6 0-1370.5 603.13-1730.77 1347.12-48.7 100.56-87.23 198.49-116.16 292.77l-1689.51 156.24H9071.29z"/><ellipse cx="10206.3" cy="19867.24" fill="#9ec93a" rx="17454.05" ry="3347.35"/><ellipse fill="#b0db4b" rx="259.29" ry="90.12" transform="matrix(-4.01098 -.00001 1.37084 6.06247 14718.6 19704.5)"/><path fill="#fff" d="m12907.5 13222.06 615.22 1040.3c404.78 1711.53 1301.45 3377.55 2591.08 4814.22l731.64-1797.07-1067.3-3321.3c111.9-2751.94-4315.02-3178.47-2870.64-736.15zM966.18 10246.9l.51.24a600.481 600.481 0 0 0 48.95 24.77c645 334.98 1020.77 910.15 1214.49 1647.62 154.64-561.4 309.32-1122.79 463.96-1684.19-346.81-205.24-630.3-614.58-772.63-902.74-52.2-134.29-148.38-251.02-282.08-327.73-235.87-135.29-430.67-93.77-630.71-258.62-366.25-301.8-437.47-711.7-904.37-856.79-125.07-241.81-396.37-307.29-588.41-142.02-300.93 259.02-478.62 300.39-779.53 559.41-125.2 49.01-331.41 345.22-344.1 501.55-23.74 292.18 286.38 223.17 461.27 342.99 522.44 292.78 1000.29 214.08 1522.63 506.76 204.6 114.66 312.59 367.53 489.68 518.3 31.94 27.2 65.46 50.7 100.37 70.43l-.03.02z"/><path fill="#fff" d="m6147.8 14116.43-840.71-1826.74C4759.87 11100.63 3396.65 10616.47 2301.81 9899l-513.97 809.64 383.48 1182.11c567.41 1345.61 1585.5 2451.78 2879.52 3128.62l1096.96-902.94zM12989.8 5896.84l328.15-291.54c692.08-614.88 1738.32-564.17 2369.73 114.86 702.53 755.53 1274.26 1626.47 1690.94 2575.95 413.55 942.37 127.37 2050.31-688.25 2664.53-793.29 597.4-1331.1 1481.3-1502.67 2469.71l-2676.68-1633.81 478.78-5899.7z"/><path fill="#fff" d="m14437.02 5383.23-513.45-184.44c-663.72-238.44-1399.33-204.25-2036.37 94.64-637.06 298.87-1120.26 836.5-1337.68 1488.34-374.37 1122.4-985.67 2157.31-1795.19 3039.18-746.84 813.57-686.47 2054.94 136 2797.11 822.48 742.17 2106.79 714.19 2893.9-63.05l2689.47-3448.27-36.68-3723.51z"/><path fill="#1b210d" d="m13093.07 6177.96 325.94-291.55c687.43-614.88 1726.64-564.17 2353.81 114.87 697.81 755.52 1265.7 1626.47 1679.57 2575.95 410.78 942.37 126.52 2050.3-683.62 2664.52-787.96 597.41-1322.15 1481.31-1492.57 2469.71l-2658.69-1633.81 475.56-5899.69z"/><path fill="#1b210d" d="m14324.18 5638.51-489.8-181.88c-633.15-235.12-1334.88-201.4-1942.58 93.33-607.72 294.71-1068.67 824.88-1276.07 1467.66a8396.463 8396.463 0 0 1-1712.5 2996.97c-712.45 802.27-654.86 2026.39 129.74 2758.25 784.59 731.86 2009.75 704.27 2760.61-62.17l2565.59-3400.37-34.99-3671.79z"/><path fill="#d97109" d="M843.74 10322.61c675.39 356.49 1065.32 956.78 1263.94 1720.44 154.65-555.55 309.33-1111.08 463.98-1666.64-346.81-218.35-630.32-638.42-772.64-931.96-331.84 238.83-623.44 639.33-955.28 878.16z"/><path fill="#f08418" d="M743.41 10248.37c-177.11-157.45-285.1-414.43-489.7-536.83-522.34-312.43-1000.18-251.81-1522.62-564.34-174.9-126.44-485-69.16-461.28-360.42 12.71-155.87 218.9-444.28 344.11-488.55 300.89-247.64 478.6-282.28 779.52-529.92 192.04-158.02 463.34-82.28 588.42 164.25 466.89 162.77 538.12 575.36 904.37 891.02 200.04 172.42 394.84 138.27 630.7 282.48 305.57 186.83 415.05 575.33 251.94 894.23-10.48 20.48-20.97 40.99-31.42 61.47-93.14 182.08-250.21 299.49-451.23 337.22-201.03 37.76-390.01-14.68-542.81-150.61z"/><path fill="#d97109" d="m5904.43 14618.28-636.21-1907.61c-414.12-1241.73-1824.37-1863.37-2834.31-2696.1l-599.3 748.67 360.15 1208.48c417.09 1399.52 1308.3 2610.24 2520.68 3424.33l1188.99-777.77z"/><path fill="#f08418" d="m5824.02 14377.14-555.8-1666.47c-209.03-626.8-671.96-1095.57-1209.03-1513.28-113.71 26.23-221.9 78.68-315.07 156.05-699.53 580.9 91.7 2749.7 1314.78 3025.33 256.24 57.74 517.41 55.3 765.12-1.63z"/><path fill="#f93" d="m-231.5 15936.41 380.74-1453.56c447.7-1709.38 1453.51-3360.49 2154.48-4970.32 273.77-628.54 537.72-314.01 640.95 94.41 340.3 1346.32 389.62 2750.22 144.46 4109.03-199.3 1104.57-726.28 2110.19-1506.59 2875.02l-1814.04-654.58z"/><path fill="#f08418" d="M3163.81 10763.25c125.45 982.21 101.01 1979.04-74.69 2952.72-157.17 871.08-518.16 1680.55-1046.43 2358.99l-895.67-749.7c1243.08-95.11 1886.63-2166.05 1980.74-3898.47l36.05-663.54z"/><path fill="#fff" d="m7972.9 14325.04-884-241.22c-1682.01-285.72-3411.69 157.66-4852.07 1018.16-284.22 169.81-607.59 262.22-942.73 245.65-474.84-23.48-904.97 253.49-1075.4 692.44-447.04 1151.42-12.73 2076.91 1552.36 2365.71 2412.58 542.8 4905.8 468.94 7247.42-214.71L7972.9 14325.04z"/><ellipse cx="11616.57" cy="18424.82" fill="#364513" rx="11240.52" ry="1279.73"/><path fill="#f08418" d="m12829.21 13120.02 556.87 1040.31c308.77 1711.53 1111.98 3377.54 2321.02 4814.22l832.45-1797.07-880.99-3321.31c266.27-2751.94-4136.71-3178.46-2829.35-736.15z"/><path fill="#f93" d="m7964.62 14756.64-883.11-287.59c-1680.32-373.78-3404.48 85.27-4843.43 871.47-283.95 155.14-1052.09-22.85-1386.9-56.92-474.36-48.28-904.07 206.49-1074.34 637-446.63 1129.23 428.55 2226.47 1992.07 2597.23 2410.15 669.25 4900.88 725.42 7240.16 163.28l-1044.45-3924.47z"/><path fill="#f08418" d="M-281.81 16921.36c207.47 728.03 962.16 1338.33 2050.72 1596.47 2344.55 651.03 4765.35 721.84 7048.83 207.72l-624.43-2351.32-3047.61 667.41c-604.3 1080.89-4358.36 1102.54-5427.51-120.28z"/><ellipse fill="#ffaa54" rx="1115.33" ry="353.36" transform="matrix(1.48024 -.51828 .29485 1.57389 3488.92 15569.3)"/><path fill="#fff" d="m10047.53 18909.33-2538.61-88.22c-1161.01-40.34-2202.97-727.41-2658.52-1753-995.09-2240.27 1538.43-4567.2 3936.47-3731.61 1644.54-452.07 2939.62 10.66 3941.07 1670.4 524.7 869.6 499.02 1935.2-66.45 2758.46-565.46 823.27-1573.93 1180.13-2613.96 1143.97z"/><path fill="#f93" d="m2325.55 9492.98 180.21-691.57c134.63-516.7 190.34-1052.2 165.23-1588.5-11.64-248.8 150.86-469.01 390.83-529.68l631.37-326.03 79.95-113.67c74.03-105.23 206.12-152.59 332.08-119.01 125.94 33.59 219.55 141.11 235.32 270.28 17.46 142.97 10.3 287.43-21.15 427.04-34.89 154.78-24.51 317.18 29.89 467.93 111.03 307.66 24.89 648.44-217.47 860.42-139.9 122.38-216.95 301.76-210.21 489.46 9.59 267.24 26.07 534.33 49.44 800.97 23.07 263.19-74.42 520.36-264.95 699-190.55 178.65-453.52 259.42-714.78 219.53-417.07-63.68-770.41-464.62-665.76-866.17z"/><path fill="#f08418" d="M4171.54 8112.87c-12.74 12.82-25.96 25.3-39.71 37.33-139.94 122.38-216.96 301.77-210.24 489.46 9.61 267.24 26.09 534.31 49.45 800.95 5.55 63.43 4.12 126.5-3.94 188.21-29.49-179.15-114.69-344.44-243.52-472.34-208.51-207.01-214.94-542.14-14.57-757.01a963.693 963.693 0 0 1 329.44-230.32l133.09-56.28z"/><path fill="#364513" d="m10084.46 19312.33-2538.61-88.21c-1161.02-40.35-2202.97-727.42-2658.53-1753-995.08-2240.28 1538.43-4567.21 3936.48-3731.62 1644.54-452.07 2939.62 10.66 3941.07 1670.4 524.69 869.6 499.01 1935.2-66.45 2758.46-565.46 823.27-1573.94 1180.13-2613.96 1143.97z"/><path fill="#fff" d="M8502.81 15128.5c358.64-11.13 853.95-152.01 569.59-1587.96-361.7-1826.46 1246.42-2683.23 2741.55-2134.88 942.33 345.61 436.71 153.77 1283.02-5.85 739.9-139.58 1621.51 610.39 1703.63 1449.32 64.72 661.33-483.33 668.19-189.11 1314.1 1049.06 2302.81-701.98 2849.43-1471.36 2509.32-225.63 814.41-408.43 648.5-926.97 955.94-879.43 521.45-1246.08 1711.75-2364.37 1674.45-2684.36-89.54-3450.24-4109.08-1345.98-4174.44z"/><path fill="#e1edc5" d="M14846.52 15971.04c-290.31 768.5-1205.92 922.73-1706.39 701.51-225.62 814.4-408.43 648.51-926.98 955.95-879.43 521.44-1246.07 1711.75-2364.37 1674.43-1050.44-35.04-1807.05-671.93-2212.89-1438.14 274.55 7.1 547.65-74.23 775.36-240.58 380.73-278.13 571.67-747.81 495.66-1219.11l1794.05-3694.44 32.98 713.01c33.75 729.66 227.07 1446.01 566.25 2098.49 157.95 303.84 436.42 528.43 765.76 617.63 329.33 89.21 678.38 34.55 959.88-150.27 242.16-159 556.75-162.58 808.32-9.21 314.89 191.96 708.41 188.35 1012.37-9.27z"/><path fill="#f93" d="m8659.51 13132.04-70.76 1047.11c-123.28 1824.16 265.02 3598.55 1122.06 5127.39l1063.68 40.49c1358.3 51.7 3343.85-105.76 4684.62-510.65l166.31-538.93-2391.92-325.34c-815.89-374.5-1216.27-470.49-2223.56-583.77l-45.74-3539.16c1685.12-2534.33-2108.69-3617.37-2304.69-717.14z"/><path fill="#f08418" d="M10964.21 13849.18c-136.43 1702.31-359.61 2839.85-1116.7 4120.67l189.09-128.23c297.65-201.86 626.12-354.84 973.34-453.28l-45.73-3539.16z"/><ellipse fill="#ffaa54" rx="276.1" ry="598.06" transform="matrix(2.2026 .08383 -.49566 2.18614 9504.58 12948.9)"/><path fill="#364513" d="m15362.75 15072.66 4851.29-453.12c162.56-15.18 253.18 110.48 201.45 279.26l-1185.9 3869.35c-51.73 168.81-227 319.3-389.56 334.49l-4851.28 453.11c-162.57 15.19-253.21-110.47-201.47-279.28l1185.89-3869.33c51.74-168.81 227-319.29 389.58-334.48z"/><ellipse fill="#47591e" rx="501.81" ry="327.5" transform="matrix(2.26535 -.21159 -.71194 2.32291 17101.4 17087.7)"/><path fill="#f93" d="m19834.49 16608.57-467.55 119.61c-121.23 30.99-423.5 148.06-470.18 321.1-70.88 262.72 161.23 629.92 257.91 817.58 97.6 189.46 246.6 307.98 422.18 335.85 202.98 32.21 428.25-161.38 534.82-459.59 95.29-266.66 178.9-538.38 250.18-813.13 117.55-453.16-108.67-631.28-399.92-737.27l-127.44 415.85zM13088.75 9310.29c-399.69 891.85-882.22 1445.04-1628.41 1991.91 395.44 66.46 672.82 749.8 1078.95 1443.73 428.67 732.4 836.71 1149.52 986.97 1887.22 1024.97-471.83 591.72-2519.91-74.53-3236.5 99.9-533.55 377.02-1055.76 751.22-1421.76l-1114.2-664.6z"/><path fill="#f08418" d="M13451.71 11396.66c88.24-471.17 314.71-933.49 624.14-1287.2l-1110.27-432.95c-176.81 240.98-248.7 543.23-199.27 838.01 49.41 294.8 215.93 557.08 461.67 727.23l223.73 154.91z"/><path fill="#f93" d="M14290.88 6042.71c2333.09 564.07 1334.2 2191.56 1392.96 3139.94 58.77 948.38-988.45 1970.53-1392.96 1970.53-404.5 0-2095.54-592.25-1884.7-2555.23 210.83-1962.99 873-2799.83 1884.7-2555.24z"/><path fill="#f08418" d="M15840.9 7478.42c45.88 593.17-186.27 1232.65-157.05 1704.24 57.63 930.22-948.71 1931.27-1368.97 1969.27 84.05-102.1 140.51-221.9 140.51-335.95 0-242.17 16.29-523.86 240.61-668.3 178.55-114.97 197.5-118.79 150.54-325.88a1724.616 1724.616 0 0 1 91.04-1047.18c188.51-450.41 236.45-947.28 137.5-1425.41l-137.5-664.43 573.63 198.26 329.69 595.38z"/><path fill="#1b210d" d="m14761.5 7087.57 186.59 151.6c621.32 504.78 981.33 1263.24 979.59 2063.77l822.15-725.71-1282.79-2575.95-839.67-231.49 134.13 1317.78z"/><path fill="#1b210d" d="m15075.06 7349.2-538.48 351.24c-682.78 445.36-1143.22 1160.74-1265.77 1966.66-113.06 743.55-704.29 1322.68-1450.01 1420.37-745.7 97.69-1466.14-309.62-1766.92-998.95l1844.49-4503.08 3559.08 154.91-382.39 1608.85z"/><path fill="#1b210d" d="M14723.11 8774.62c-286.45-316.08-818.66-627.03-1144.88-118.97 512.36-184.35 700.56-104.28 1144.88 118.97zM15056.59 8774.62c197.77-316.08 565.24-627.03 790.48-118.97-353.76-184.35-483.71-104.28-790.48 118.97zM13491.23 9138.27c-2.96 329.4 354.9 543.9 691.17 315.5l-691.17-315.5z"/><path fill="#fff" d="M14508.04 9224.03c-438.78 399.24-858.05 437.51-1067.68-223.36 290.53 269.36 693.85 326.59 1067.68 223.36z"/><path fill="#f08418" d="M13454.12 9003.27c409.99-314.78 811.43-438.18 1123.38 204.13-355.29-.81-729.5-72.81-1123.38-204.13z"/><path fill="#1b210d" d="M13302.58 8936.65c353.17 352.99 849.84 473.28 1324.79 261.49-279.45-133.63-763.93-187.77-1324.79-261.49z"/><path fill="#1b210d" d="M14260.18 9252.22c-8.78 84.88-97.35 167.22-215.12 193.39-133.38 29.62-253.68-24.04-268.7-119.89-9.42-60.03 24.71-122.36 84.33-167.84l399.49 94.34z"/><ellipse cx="13821.67" cy="9317.93" fill="#fff" rx="76.54" ry="32.07"/><path fill="#1b210d" d="M15581.29 9169.15c-64.73 324.08-300.13 519.24-434.79 279.78l434.79-279.78z"/><path fill="#fff" d="M15012.01 9224.03c166.08 399.24 398.65 437.51 661.3-223.36-224.84 269.36-468.81 326.59-661.3 223.36z"/><path fill="#d97109" d="M15664.85 9003.27c-167.72-314.78-371.73-438.18-689.16 204.13 204.24-.81 434.67-72.81 689.16-204.13z"/><path fill="#1b210d" d="M15766.23 8936.65c-278.83 352.99-589.97 473.28-817.19 261.49 267.41-121.78 539.36-206.94 817.19-261.49z"/><path fill="#1b210d" d="M15226.01 9234.01c-43.13 84.88-38.98 167.23 13.81 193.4 59.8 29.62 159.35-24.05 222.36-119.89 39.47-60.03 55.24-122.36 46.81-167.84l-282.98 94.33z"/><ellipse fill="#fff" rx="34.73" ry="14.55" transform="matrix(-1.26576 0 -.47436 2.2038 15211.4 9375.93)"/><path fill="#1b210d" d="M14144.59 10370.66c212.56-60.5 425.89-77.88 625.77-51.02 32.27 4.34 55.84 25.92 61.98 56.77 6.14 30.83-6.06 66.34-32.08 93.38l-33.26 62.69c-52.59 99.15-148.34 176.4-254.39 205.22-259.96 70.72-376.1-149.92-368.02-367.04z"/><path fill="#404a29" d="M14150.67 5919.45c-1371.25-542.97-2834.68-187.39-3034.89 1425.44 730.16-1088.08 1618.66-1810.77 3034.89-1425.44zM16330.89 7132.05l444.36 629.73c519.53 736.25 663.53 1682.49 387.39 2545.59l-34.19-630.86c-49-904-352.98-1712.84-797.56-2544.46z"/><path fill="#404a29" d="m16517.69 8249.47 265.75 620.15c310.7 725.05 213.4 1486.71-261.75 2049.02l123.48-487.71c176.94-698.87 88.58-1408.71-127.48-2181.46zM14219.39 7374.8c-735.61 262.05-1463.36 1023.86-1268.05 2348.69l119.73-489.37c171.58-701.27 587.5-1283.56 1148.32-1859.32z"/><path fill="#fff" d="m15677.81 5624.74 454.82 629.73c531.76 736.25 679.15 1682.49 396.51 2545.59l-35-630.86c-50.15-904-361.29-1712.84-816.33-2544.46zM10877.35 7330.65l-294.25 754.85c-344.03 882.53-1074.49 1609.21-1965.09 1954.93l521.03-436.38c746.6-625.31 1271.41-1387.25 1738.31-2273.4z"/><path fill="#404a29" d="M11953.34 8272.19c505.02-1198.62 1104.5-1802.8 2361.15-1682.41l-511.37 194.81c-732.81 279.19-1304.55 805.74-1849.78 1487.6zM11234.92 9405.52c-505.7 1198.33-1105.52 1802.18-2362.1 1681.09l511.48-194.53c732.96-278.77 1305.01-805.01 1850.62-1486.56z"/><path fill="#fff" d="m11766.1 9631.58-348.39 419.15c-407.31 490.05-1028.09 798.42-1670.03 829.58l425.36-167.65c609.52-240.24 1106.55-614.86 1593.06-1081.08z"/><path fill="#404a29" d="M11357.86 7843.97c722.45-1418.73 1508.37-2076.94 3120.22-1665.36-1255 48.78-1946.67 387.38-3120.22 1665.36zM13033.98 7890.24c-787.84 473.05-1150.48 952.73-940.65 1819.62l85.13-377.14c122.01-540.45 433.13-992.97 855.52-1442.48zM16043.29 6574.68c-504.32-649.26-857.7-901-1182.94-549.5l205.4 11.52c294.34 16.52 616.49 225.12 977.54 537.98zM16193.59 7089.82c-412.62-531.2-701.75-737.17-967.85-449.58l168.05 9.43c240.82 13.51 504.39 184.18 799.8 440.15z"/><path fill="#fff" d="m11612.55 7263.58 348.39-419.15c407.31-490.04 1028.09-798.42 1670.03-829.58l-425.36 167.65c-609.52 240.24-1106.55 614.86-1593.06 1081.08z"/><path fill="#1b210d" d="m17504.78 8708.54 132.19 411.17c312.1 995.41 8.41 1999.59-982.14 2532.55 645.57-733.62 1078.66-1626.78 849.95-2943.72z"/><path fill="#6e9610" d="M26721.03 20952.93c-2351.3 1315.75-8856.76 2261.67-16514.73 2261.67-9639.6 0-17454.05-1498.67-17454.05-3347.36 0-663.87 1007.77-1282.56 2745.83-1802.97-608.42 340.48-939.32 705.64-939.32 1085.68 0 1848.69 7814.46 3347.36 17454.06 3347.36 6178 0 11606.23-615.61 14708.21-1544.38z"/><path fill="#b0db4b" d="M3849.32 19981.09c1490.14 833.86 5613 1433.34 10466.25 1433.34 6109.12 0 11061.55-949.79 11061.55-2121.4 0-420.73-638.67-812.82-1740.18-1142.64 385.59 215.78 595.3 447.2 595.3 688.06 0 1171.61-4952.43 2121.39-11061.55 2121.39-3915.33 0-7355.48-390.14-9321.37-978.75z"/><ellipse fill="#b0db4b" rx="259.29" ry="90.12" transform="matrix(2.5102 -.35727 0 2.5102 -1248.95 19034.1)"/><ellipse fill="#b0db4b" rx="235.47" ry="65.99" transform="matrix(2.5102 -.35727 0 2.5102 -3779.41 18231.9)"/><ellipse fill="#b0db4b" rx="187.85" ry="64.31" transform="matrix(2.5102 .27176 0 2.5102 26021.4 19654.8)"/><ellipse fill="#b0db4b" rx="187.85" ry="64.31" transform="matrix(1.69701 .30688 0 2.83467 25194.5 20406.5)"/><ellipse fill="#b0db4b" rx="187.85" ry="64.31" transform="matrix(1.69701 .28348 0 2.61852 22538.3 19433.1)"/><ellipse fill="#fff" rx="153.46" ry="251.35" transform="matrix(2.5102 0 -.5705 2.5102 21575.5 6865.76)"/><ellipse fill="#fff" rx="153.46" ry="251.35" transform="matrix(1.47971 0 -.3363 1.4797 20850.3 7196.67)"/><ellipse fill="#fff" rx="153.46" ry="251.35" transform="matrix(1.47971 0 -.3363 1.4797 23854.8 8834.2)"/><ellipse fill="#fff" rx="153.46" ry="251.35" transform="matrix(1.47971 0 -.3363 1.4797 713.691 4599.74)"/><ellipse fill="#fff" rx="153.46" ry="251.35" transform="matrix(2.1996 0 -.4999 2.1996 3943.15 4408.75)"/><ellipse fill="#fff" rx="153.46" ry="251.35" transform="matrix(.7399 0 -.16815 .7399 7060.37 5687.86)"/><ellipse fill="#f5f0bf" rx="153.46" ry="251.35" transform="matrix(2.1996 0 -.4999 2.1996 6121.58 8345.97)"/><ellipse fill="#f5f0bf" rx="153.46" ry="251.35" transform="matrix(3.94228 0 -.89596 3.94228 23142.6 11753.3)"/><ellipse fill="#f5f0bf" rx="153.46" ry="251.35" transform="matrix(1.97124 0 -.448 1.97124 18393.5 4351.3)"/><ellipse fill="#f5f0bf" rx="153.46" ry="251.35" transform="matrix(1.97124 0 -.448 1.97124 -1576.91 12428.8)"/><ellipse fill="#b0db4b" rx="259.29" ry="90.12" transform="matrix(4.74953 -1.07397 0 7.54581 4078.64 20439.6)"/><ellipse fill="#b0db4b" rx="259.29" ry="90.12" transform="matrix(2.28672 -.51705 -.00004 3.63301 1879.76 20221.1)"/><ellipse fill="#b0db4b" rx="259.29" ry="90.12" transform="matrix(-3.91222 -.8846 .00006 6.21552 20762.5 20215.2)"/><ellipse fill="#b0db4b" rx="187.85" ry="64.31" transform="matrix(2.01982 .46199 2.98183 4.26735 23667.5 21061.1)"/><path fill="#fff" d="m13725.43 1206.16 760.46 737.2 1776.62-564.52-1723.48 195.92zM12609.64 1770.71l488.72 473.76 1141.76-362.79-1107.61 125.91zM14382.95 2813.44l488.72 473.77 1141.75-362.79-1107.6 125.91z"/><path fill="none" d="M-9875.3-4479.59h40163.2v30122.4H-9875.3z"/></svg>